<?xml version="1.0" encoding="UTF-8"?>
<svg version="1.1" xmlns="http://www.w3.org/2000/svg" width="500" height="500">
<path d="M0 0 C165 0 330 0 500 0 C500 165 500 330 500 500 C335 500 170 500 0 500 C0 335 0 170 0 0 Z " fill="#0CC0DE" transform="translate(0,0)"/>
<path d="M0 0 C7.84198231 -0.0467081 15.68393094 -0.08206192 23.52601814 -0.10362434 C27.168926 -0.11398252 30.81173745 -0.12799252 34.45458984 -0.15087891 C37.98188067 -0.17289606 41.50907983 -0.18462819 45.03643417 -0.18975449 C47.01130959 -0.19515126 48.98614905 -0.21071565 50.96096802 -0.22659302 C67.14334929 -0.22856406 83.96473027 1.01306469 96 13 C100.61645402 19.00801671 102.15005704 23.75161336 102.1875 31.375 C102.20167969 32.68210938 102.21585937 33.98921875 102.23046875 35.3359375 C102 39 102 39 100 44 C115.18 44 130.36 44 146 44 C147.15033784 62.40540541 147.15033784 62.40540541 147.0625 71 C147.05798828 71.88171875 147.05347656 72.7634375 147.04882812 73.671875 C147.03736396 75.78128164 147.01945096 77.89065189 147 80 C143.04 80 139.08 80 135 80 C134.5875 78.47375 134.175 76.9475 133.75 75.375 C132.41047726 70.99054363 131.07045843 67.49691099 128 64 C123.07826563 61.48617244 119.34828374 60.60833227 113.75390625 60.48828125 C111.95288452 60.43861206 111.95288452 60.43861206 110.11547852 60.38793945 C108.61299561 60.36304443 107.1105127 60.33814941 105.5625 60.3125 C100.756875 60.209375 95.95125 60.10625 91 60 C91 72.54 91 85.08 91 98 C94.568125 97.87625 98.13625 97.7525 101.8125 97.625 C102.93374268 97.59100098 104.05498535 97.55700195 105.21020508 97.52197266 C106.53894653 97.46855713 106.53894653 97.46855713 107.89453125 97.4140625 C108.80050049 97.3826416 109.70646973 97.3512207 110.63989258 97.31884766 C113.26525392 97.13972081 113.26525392 97.13972081 116 95 C117.02672001 91.66772638 117.02672001 91.66772638 117.6875 87.875 C117.93886719 86.59367187 118.19023437 85.31234375 118.44921875 83.9921875 C118.63097656 83.00476563 118.81273437 82.01734375 119 81 C123.29 81 127.58 81 132 81 C132 97.83 132 114.66 132 132 C127.71 132 123.42 132 119 132 C118.34 127.05 117.68 122.1 117 117 C113.71269981 116.17817495 111.13438179 115.81942251 107.796875 115.68359375 C106.8171875 115.64169922 105.8375 115.59980469 104.828125 115.55664062 C103.81234375 115.51732422 102.7965625 115.47800781 101.75 115.4375 C100.71875 115.39431641 99.6875 115.35113281 98.625 115.30664062 C96.0834613 115.20074318 93.54182804 115.09866557 91 115 C91.06870337 121.08764991 91.15658406 127.17460148 91.26245117 133.26171875 C91.29575823 135.33358027 91.32377197 137.40553379 91.34643555 139.47753906 C91.37987563 142.45157173 91.43218505 145.42475679 91.48828125 148.3984375 C91.49467117 149.32868744 91.5010611 150.25893738 91.50764465 151.21737671 C91.52743881 152.07811798 91.54723297 152.93885925 91.56762695 153.82568359 C91.57873001 154.58513275 91.58983307 155.34458191 91.60127258 156.12704468 C91.85957248 158.410719 91.85957248 158.410719 95 160 C98.19806665 160.4603764 98.19806665 160.4603764 101.6875 160.625 C104.8121875 160.810625 104.8121875 160.810625 108 161 C108 165.29 108 169.58 108 174 C87.87 174 67.74 174 47 174 C47 169.71 47 165.42 47 161 C50.02734375 160.77213542 53.0546875 160.54427083 56.08203125 160.31640625 C59.05989905 160.09787539 59.05989905 160.09787539 62 159 C63.60970654 155.78058692 63.24242971 152.25204413 63.31640625 148.7109375 C63.33505737 147.98559814 63.3537085 147.26025879 63.3729248 146.51293945 C63.44128272 143.80041824 63.50139299 141.08769425 63.5625 138.375 C63.706875 132.31125 63.85125 126.2475 64 120 C42.88 120 21.76 120 0 120 C0 119.01 0 118.02 0 117 C0.88751953 116.94392578 0.88751953 116.94392578 1.79296875 116.88671875 C6.53966249 116.49180622 10.19027074 116.11705121 14 113 C15.7019596 110.17923903 16.25298975 108.07044352 16.27415466 104.79420471 C16.28412979 103.9629306 16.29410492 103.13165649 16.30438232 102.27519226 C16.30537933 100.91996208 16.30537933 100.91996208 16.30639648 99.53735352 C16.31472 98.57919739 16.32304352 97.62104126 16.33161926 96.6338501 C16.35572141 93.46549421 16.36449099 90.2973441 16.37109375 87.12890625 C16.38005875 84.92699623 16.38918057 82.72508685 16.39845276 80.5231781 C16.41494508 75.9072827 16.42264353 71.29145987 16.42553711 66.67553711 C16.43092614 60.75920009 16.4686272 54.84354413 16.51428127 48.92739964 C16.54401141 44.37979129 16.55125977 39.8323479 16.55226326 35.2846508 C16.55647231 33.10333061 16.5689339 30.92201023 16.58978081 28.7407856 C16.61661517 25.69069272 16.61189339 22.64219137 16.59936523 19.59204102 C16.61419952 18.69057846 16.62903381 17.78911591 16.64431763 16.8603363 C16.59228894 12.41559975 16.44743755 10.57751512 13.64344788 6.95835876 C10.70851224 4.78405566 8.78363141 4.16409573 5.1875 3.6875 C4.21167969 3.54699219 3.23585937 3.40648438 2.23046875 3.26171875 C1.49441406 3.17535156 0.75835937 3.08898437 0 3 C0 2.01 0 1.02 0 0 Z " fill="#0D4047" transform="translate(183,118)"/>
<path d="M0 0 C7.84198231 -0.0467081 15.68393094 -0.08206192 23.52601814 -0.10362434 C27.168926 -0.11398252 30.81173745 -0.12799252 34.45458984 -0.15087891 C37.98188067 -0.17289606 41.50907983 -0.18462819 45.03643417 -0.18975449 C47.01130959 -0.19515126 48.98614905 -0.21071565 50.96096802 -0.22659302 C67.14334929 -0.22856406 83.96473027 1.01306469 96 13 C100.61645402 19.00801671 102.15005704 23.75161336 102.1875 31.375 C102.20167969 32.68210938 102.21585937 33.98921875 102.23046875 35.3359375 C102 39 102 39 100 44 C93.73 44 87.46 44 81 44 C81.66 41.03 82.32 38.06 83 35 C83.55421297 28.25707553 83.03599104 23.55090085 79 18 C72.97829271 11.48192638 66.05839777 7.33690386 57.02563477 6.90576172 C54.72454619 6.86551241 52.42639727 6.86366307 50.125 6.875 C49.34769531 6.87113281 48.57039063 6.86726563 47.76953125 6.86328125 C46.61904297 6.86521484 46.61904297 6.86521484 45.4453125 6.8671875 C44.41688232 6.86887939 44.41688232 6.86887939 43.36767578 6.87060547 C40.22719151 7.04223433 37.11356002 7.55520571 34 8 C34 23.18 34 38.36 34 54 C38.29 54.33 42.58 54.66 47 55 C47 55.66 47 56.32 47 57 C47.89203125 56.96519531 48.7840625 56.93039063 49.703125 56.89453125 C50.87359375 56.86746094 52.0440625 56.84039062 53.25 56.8125 C54.99023438 56.76029297 54.99023438 56.76029297 56.765625 56.70703125 C60.23853368 57.02160631 61.62630213 57.47941489 64 60 C64 60.99 64 61.98 64 63 C49.15 62.505 49.15 62.505 34 62 C34 78.5 34 95 34 112 C36.64 112 39.28 112 42 112 C44 112.33333333 46 112.66666667 48 113 C50.79320882 113.11736755 53.57998558 113.09535279 56.375 113.0625 C57.11105469 113.05798828 57.84710938 113.05347656 58.60546875 113.04882812 C60.40368158 113.03715142 62.20185197 113.01922011 64 113 C64 115.31 64 117.62 64 120 C42.88 120 21.76 120 0 120 C0 119.01 0 118.02 0 117 C0.88751953 116.94392578 0.88751953 116.94392578 1.79296875 116.88671875 C6.53966249 116.49180622 10.19027074 116.11705121 14 113 C15.7019596 110.17923903 16.25298975 108.07044352 16.27415466 104.79420471 C16.28412979 103.9629306 16.29410492 103.13165649 16.30438232 102.27519226 C16.30537933 100.91996208 16.30537933 100.91996208 16.30639648 99.53735352 C16.31472 98.57919739 16.32304352 97.62104126 16.33161926 96.6338501 C16.35572141 93.46549421 16.36449099 90.2973441 16.37109375 87.12890625 C16.38005875 84.92699623 16.38918057 82.72508685 16.39845276 80.5231781 C16.41494508 75.9072827 16.42264353 71.29145987 16.42553711 66.67553711 C16.43092614 60.75920009 16.4686272 54.84354413 16.51428127 48.92739964 C16.54401141 44.37979129 16.55125977 39.8323479 16.55226326 35.2846508 C16.55647231 33.10333061 16.5689339 30.92201023 16.58978081 28.7407856 C16.61661517 25.69069272 16.61189339 22.64219137 16.59936523 19.59204102 C16.61419952 18.69057846 16.62903381 17.78911591 16.64431763 16.8603363 C16.59228894 12.41559975 16.44743755 10.57751512 13.64344788 6.95835876 C10.70851224 4.78405566 8.78363141 4.16409573 5.1875 3.6875 C4.21167969 3.54699219 3.23585937 3.40648438 2.23046875 3.26171875 C1.49441406 3.17535156 0.75835937 3.08898437 0 3 C0 2.01 0 1.02 0 0 Z " fill="#FAFDFE" transform="translate(183,118)"/>
<path d="M0 0 C29.7 0 59.4 0 90 0 C90 8.58 90 17.16 90 26 C89.01 26 88.02 26 87 26 C86.60167969 24.98679688 86.60167969 24.98679688 86.1953125 23.953125 C85.84210938 23.06109375 85.48890625 22.1690625 85.125 21.25 C84.77695312 20.36828125 84.42890625 19.4865625 84.0703125 18.578125 C82.43620825 14.08606546 82.43620825 14.08606546 79.1875 10.875 C78.1046875 10.441875 78.1046875 10.441875 77 10 C75.96709839 9.49073975 75.96709839 9.49073975 74.91333008 8.97119141 C70.97875401 7.65955614 67.32219561 7.64485806 63.19921875 7.5859375 C62.45724243 7.56829346 61.71526611 7.55064941 60.95080566 7.5324707 C58.19658513 7.46971809 55.44201163 7.42331472 52.6875 7.375 C46.520625 7.25125 40.35375 7.1275 34 7 C34 22.51 34 38.02 34 54 C38.145625 53.896875 42.29125 53.79375 46.5625 53.6875 C47.85615479 53.66260498 49.14980957 53.63770996 50.48266602 53.61206055 C56.6574752 53.4151298 61.6150975 53.15823396 67 50 C69.82445974 45.85745905 70.50578731 41.94212692 71 37 C72.32 37 73.64 37 75 37 C75 50.53 75 64.06 75 78 C73.68 78 72.36 78 71 78 C70.97421875 77.40832031 70.9484375 76.81664062 70.921875 76.20703125 C70.54554526 70.9640737 69.98840916 67.76050006 66 64 C62.54056769 61.79365963 59.53986824 61.69654186 55.484375 61.5859375 C54.23398437 61.54726562 52.98359375 61.50859375 51.6953125 61.46875 C50.39335937 61.4378125 49.09140625 61.406875 47.75 61.375 C46.43257813 61.33632812 45.11515625 61.29765625 43.7578125 61.2578125 C40.50534839 61.16353818 37.25289004 61.0779325 34 61 C34.09241767 67.60222405 34.1997428 74.20408573 34.31738281 80.8059082 C34.35564079 83.05129513 34.39049921 85.29674269 34.421875 87.54223633 C34.46759417 90.77186737 34.52557807 94.00108222 34.5859375 97.23046875 C34.60326431 98.73386055 34.60326431 98.73386055 34.62094116 100.2676239 C34.64081085 101.20822159 34.66068054 102.14881927 34.68115234 103.11791992 C34.69447601 103.94176682 34.70779968 104.76561371 34.7215271 105.61442566 C35.04542133 108.38910778 35.75860826 110.49988253 37 113 C41.53390669 116.02260446 45.69945855 116.54305677 51 117 C51 117.99 51 118.98 51 120 C34.17 120 17.34 120 0 120 C0 119.01 0 118.02 0 117 C0.74765625 116.90203125 1.4953125 116.8040625 2.265625 116.703125 C8.28386591 115.86187808 8.28386591 115.86187808 13.625 113.1875 C16.73716853 108.23632279 16.15959001 102.33910089 16.17700195 96.68334961 C16.18357315 95.75270187 16.19014435 94.82205414 16.19691467 93.86320496 C16.21657858 90.79291701 16.22829086 87.72267767 16.23828125 84.65234375 C16.24439454 83.07802173 16.24439454 83.07802173 16.25063133 81.47189522 C16.27145608 75.92356693 16.28577699 70.37526316 16.29516602 64.8269043 C16.306262 59.09109646 16.34070884 53.35567319 16.38033772 47.62000179 C16.40643447 43.21142336 16.41485135 38.80293791 16.41844749 34.39428902 C16.42332634 32.27913356 16.43497703 30.16398261 16.45348549 28.04890251 C16.47774353 25.09470505 16.47693706 22.14152169 16.4699707 19.18725586 C16.48278076 18.31182129 16.49559082 17.43638672 16.50878906 16.53442383 C16.49128175 11.65954594 16.49128175 11.65954594 14.11515808 7.50001526 C9.66201655 4.34196277 5.37365167 3.63219431 0 3 C0 2.01 0 1.02 0 0 Z " fill="#FBFCFC" transform="translate(235,167)"/>
<path d="M0 0 C1.18867676 0.00628418 1.18867676 0.00628418 2.40136719 0.01269531 C11.97952026 0.19711694 20.08224541 2.17486536 27.03515625 9.171875 C32.2457444 14.86393434 34.36232125 18.92826207 34.55078125 26.640625 C34.0052882 30.65263839 32.46788331 34.47135008 31.1875 38.3125 C19.9675 38.3125 8.7475 38.3125 -2.8125 38.3125 C-2.8125 41.9425 -2.8125 45.5725 -2.8125 49.3125 C-4.400625 49.333125 -5.98875 49.35375 -7.625 49.375 C-8.51832031 49.38660156 -9.41164062 49.39820313 -10.33203125 49.41015625 C-12.8125 49.3125 -12.8125 49.3125 -15.8125 48.3125 C-15.8125 33.1325 -15.8125 17.9525 -15.8125 2.3125 C-9.88041914 0.61761976 -5.92896464 -0.04272675 0 0 Z " fill="#10C1DF" transform="translate(232.8125,123.6875)"/>
<path d="M0 0 C4.2075 -0.020625 8.415 -0.04125 12.75 -0.0625 C14.0709668 -0.071604 15.39193359 -0.08070801 16.75292969 -0.09008789 C18.32155762 -0.09383423 18.32155762 -0.09383423 19.921875 -0.09765625 C20.99018555 -0.10289307 22.05849609 -0.10812988 23.15917969 -0.11352539 C25.64293309 -0.01426917 27.62175533 0.35677319 30 1 C30.02526787 8.10244999 30.04283201 15.20488848 30.05493164 22.30737305 C30.05997349 24.72567172 30.06680678 27.14396733 30.07543945 29.56225586 C30.08751157 33.02979283 30.09322963 36.49728966 30.09765625 39.96484375 C30.10281754 41.05337143 30.10797882 42.14189911 30.11329651 43.26341248 C30.11340981 44.76485558 30.11340981 44.76485558 30.11352539 46.29663086 C30.115746 47.18265488 30.11796661 48.06867889 30.12025452 48.98155212 C30 51 30 51 29 52 C26.7737229 52.1295398 24.54251322 52.17604053 22.3125 52.1875 C21.09175781 52.20167969 19.87101562 52.21585938 18.61328125 52.23046875 C12.37224922 51.91868137 6.18601151 50.88371593 0 50 C0 33.5 0 17 0 0 Z " fill="#10C1DF" transform="translate(217,180)"/>
<path d="M0 0 C0.99 0.33 1.98 0.66 3 1 C2.34 1 1.68 1 1 1 C1 1.66 1 2.32 1 3 C1.78375 3.28875 2.5675 3.5775 3.375 3.875 C6 5 6 5 8 7 C8.44949688 10.33911969 8.71658313 12.85396635 6.87890625 15.79296875 C5.65335768 17.25460033 4.33201246 18.63468722 3 20 C4.0209375 21.2065625 4.0209375 21.2065625 5.0625 22.4375 C7.39427789 25.96441854 7.41186543 28.77185578 6.75390625 32.87890625 C5.25544316 37.09478945 1.91092386 39.04453807 -2 41 C-11.82976462 42.06963003 -19.85100787 40.86556176 -28 35 C-28.495 33.515 -28.495 33.515 -29 32 C-28.31292969 32.04640625 -27.62585938 32.0928125 -26.91796875 32.140625 C-26.01691406 32.17671875 -25.11585938 32.2128125 -24.1875 32.25 C-23.29417969 32.29640625 -22.40085938 32.3428125 -21.48046875 32.390625 C-18.94448299 32.22409203 -18.94448299 32.22409203 -17.359375 30.5078125 C-15.10025246 26.34012092 -13.78711128 21.87500591 -12.33789062 17.375 C-10.76848728 12.6874945 -8.9313807 8.98870376 -6 5 C-10.455 5.495 -10.455 5.495 -15 6 C-11.71233501 2.71233501 -10.77457691 2.51346103 -6.375 1.875 C-2.87811449 1.61266888 -2.87811449 1.61266888 0 0 Z " fill="#12C1DF" transform="translate(213,296)"/>
<path d="M0 0 C9.03532609 4.51766304 9.03532609 4.51766304 11.875 8.4375 C12.42929687 9.17871094 12.98359375 9.91992188 13.5546875 10.68359375 C16.33623297 15.1415842 17.27705192 18.68266364 17.25 23.9375 C17.25515625 24.93652344 17.2603125 25.93554688 17.265625 26.96484375 C17 30 17 30 15 36 C10.05 36 5.1 36 0 36 C0 24.12 0 12.24 0 0 Z " fill="#FBFEFE" transform="translate(274,180)"/>
<path d="M0 0 C0.99 0.33 1.98 0.66 3 1 C2.34 1 1.68 1 1 1 C1 1.66 1 2.32 1 3 C1.78375 3.28875 2.5675 3.5775 3.375 3.875 C6 5 6 5 8 7 C8.44949688 10.33911969 8.71658313 12.85396635 6.87890625 15.79296875 C5.65335768 17.25460033 4.33201246 18.63468722 3 20 C4.0209375 21.2065625 4.0209375 21.2065625 5.0625 22.4375 C7.39427789 25.96441854 7.41186543 28.77185578 6.75390625 32.87890625 C5.25544316 37.09478945 1.91092386 39.04453807 -2 41 C-11.82976462 42.06963003 -19.85100787 40.86556176 -28 35 C-28.495 33.515 -28.495 33.515 -29 32 C-28.31292969 32.04640625 -27.62585938 32.0928125 -26.91796875 32.140625 C-26.01691406 32.17671875 -25.11585938 32.2128125 -24.1875 32.25 C-23.29417969 32.29640625 -22.40085938 32.3428125 -21.48046875 32.390625 C-18.94448299 32.22409203 -18.94448299 32.22409203 -17.359375 30.5078125 C-15.10025246 26.34012092 -13.78711128 21.87500591 -12.33789062 17.375 C-10.76848728 12.6874945 -8.9313807 8.98870376 -6 5 C-10.455 5.495 -10.455 5.495 -15 6 C-11.71233501 2.71233501 -10.77457691 2.51346103 -6.375 1.875 C-2.87811449 1.61266888 -2.87811449 1.61266888 0 0 Z M-3 4 C-7.07699848 8.36310364 -8.64058696 12.95572276 -10.5 18.5 C-14.72156116 31.08757734 -14.72156116 31.08757734 -20.25 34.3125 C-21.11625 34.6528125 -21.11625 34.6528125 -22 35 C-19.29566686 38.71845807 -15.29041872 39.28756885 -11 40 C-5.75729583 40.45195726 -2.44221612 39.89260585 2 37 C4.62998478 33.65274664 4.43342998 30.1175848 4 26 C2.0467078 22.67216884 0.97501049 21.28807128 -2.75 20.1875 C-3.86375 20.0946875 -3.86375 20.0946875 -5 20 C-5 19.34 -5 18.68 -5 18 C-3.906875 18.061875 -2.81375 18.12375 -1.6875 18.1875 C1.82823915 18.2771913 1.82823915 18.2771913 3.9375 16.9375 C5.6140629 13.88023824 5.36528977 11.4093712 5 8 C3.35674426 5.40538567 2.29740522 5.07608041 -0.6875 4.3125 C-1.8321875 4.1578125 -1.8321875 4.1578125 -3 4 Z " fill="#D9F5FA" transform="translate(213,296)"/>
<path d="M0 0 C-0.33 0.66 -0.66 1.32 -1 2 C-3.26146696 2.315344 -5.49236549 2.37920528 -7.7734375 2.4609375 C-10.12102869 2.82198782 -10.12102869 2.82198782 -11.68359375 4.7109375 C-13.11283528 7.19620616 -13.92466954 9.48928024 -14.6875 12.25 C-14.93886719 13.14203125 -15.19023437 14.0340625 -15.44921875 14.953125 C-15.63097656 15.62859375 -15.81273437 16.3040625 -16 17 C-14.02 17 -12.04 17 -10 17 C-10 17.33 -10 17.66 -10 18 C-11.051875 17.95875 -12.10375 17.9175 -13.1875 17.875 C-17.03276866 18.55466722 -17.03276866 18.55466722 -18.296875 21.046875 C-19.07704362 22.81026983 -19.848797 24.57740535 -20.61328125 26.34765625 C-23.24354824 31.37850494 -27.62237937 35.20745979 -33 37 C-37.55397209 37.4637601 -41.58175777 37.81042413 -45.625 35.5 C-47.69144583 31.74282577 -47.48124264 29.26243478 -47 25 C-46.01 24.34 -45.02 23.68 -44 23 C-44 26.3 -44 29.6 -44 33 C-38.97141801 34.676194 -34.65969589 34.60642735 -29.75 32.8125 C-23.97010336 29.00302267 -22.14323564 24.32254514 -20 18 C-23.63 18.33 -27.26 18.66 -31 19 C-29 17 -29 17 -26.6171875 16.8046875 C-25.71226562 16.82789063 -24.80734375 16.85109375 -23.875 16.875 C-22.96492188 16.89304687 -22.05484375 16.91109375 -21.1171875 16.9296875 C-20.41851562 16.95289063 -19.71984375 16.97609375 -19 17 C-18.731875 15.783125 -18.46375 14.56625 -18.1875 13.3125 C-17.04752731 8.74452433 -15.35612328 5.35612328 -12 2 C-14.68232827 0.65883586 -16.81832259 0.83095979 -19.8125 0.8125 C-21.36904297 0.79123047 -21.36904297 0.79123047 -22.95703125 0.76953125 C-26.03770533 1.00285573 -28.21761592 1.69881114 -31 3 C-22.82900475 -5.44336176 -10.67332863 -2.15389695 0 0 Z " fill="#CEF2F8" transform="translate(297,300)"/>
<path d="M0 0 C0.33 0.66 0.66 1.32 1 2 C0.12933711 4.26431782 -0.7965322 6.42726211 -1.8125 8.625 C-4.99160479 15.77388666 -7.39822319 22.03553623 -7 30 C-6.34 29.67 -5.68 29.34 -5 29 C-5.33 29.99 -5.66 30.98 -6 32 C-8.0625 32.6875 -8.0625 32.6875 -10 33 C-10.66 32.01 -11.32 31.02 -12 30 C-12.5775 30.515625 -13.155 31.03125 -13.75 31.5625 C-16 33 -16 33 -18.25 32.6875 C-18.8275 32.460625 -19.405 32.23375 -20 32 C-20.29321709 27.01530948 -20.18338925 23.95179356 -17 20 C-14.64700984 18.31067373 -12.83761324 17.14602727 -9.97363281 16.64672852 C-7.89446766 16.17406764 -7.89446766 16.17406764 -6.81152344 14.41772461 C-6.49731445 13.75264893 -6.18310547 13.08757324 -5.859375 12.40234375 C-5.51132813 11.68369141 -5.16328125 10.96503906 -4.8046875 10.22460938 C-4.45664063 9.46986328 -4.10859375 8.71511719 -3.75 7.9375 C-3.38648438 7.17888672 -3.02296875 6.42027344 -2.6484375 5.63867188 C-1.75291206 3.76513839 -0.87477399 1.88331197 0 0 Z " fill="#CFF2F8" transform="translate(251,304)"/>
<path d="M0 0 C0.99 0.33 1.98 0.66 3 1 C2.34 1 1.68 1 1 1 C1 1.66 1 2.32 1 3 C1.66 3 2.32 3 3 3 C2.67 3.99 2.34 4.98 2 6 C-0.475 5.505 -0.475 5.505 -3 5 C-6.87585865 10.2678337 -8.70859578 15.51568945 -10.62304688 21.72265625 C-12.28596485 26.78843909 -14.16079647 30.24323336 -18 34 C-21.8125 34.375 -21.8125 34.375 -25 34 C-25 33.67 -25 33.34 -25 33 C-23.9275 32.855625 -22.855 32.71125 -21.75 32.5625 C-19.34305824 31.85685041 -18.2755518 31.39234196 -16.8203125 29.3203125 C-15.75323964 26.91278448 -14.86323341 24.48834894 -14 22 C-13.15277468 19.7265678 -12.29833529 17.45581376 -11.4375 15.1875 C-11.04433594 14.10855469 -10.65117187 13.02960938 -10.24609375 11.91796875 C-9.09619256 9.22525342 -7.86743148 7.23550494 -6 5 C-10.455 5.495 -10.455 5.495 -15 6 C-11.71233501 2.71233501 -10.77457691 2.51346103 -6.375 1.875 C-2.87811449 1.61266888 -2.87811449 1.61266888 0 0 Z " fill="#C1EEF6" transform="translate(213,296)"/>
<path d="M0 0 C1.2065625 0.0309375 1.2065625 0.0309375 2.4375 0.0625 C2.4375 1.3825 2.4375 2.7025 2.4375 4.0625 C-0.06734597 6.48097197 -1.02263806 7.0625 -4.5625 7.0625 C-4.5625 9.0425 -4.5625 11.0225 -4.5625 13.0625 C-2.2525 12.4025 0.0575 11.7425 2.4375 11.0625 C0.75 13.125 0.75 13.125 -1.5625 15.0625 C-5.8625 14.7625 -5.8625 14.7625 -7.5625 13.0625 C-8.17621709 7.78453304 -6.74795093 5.21323908 -3.5625 1.0625 C-2.5625 0.0625 -2.5625 0.0625 0 0 Z " fill="#A5E7F3" transform="translate(293.5625,321.9375)"/>
<path d="M0 0 C0.33 0.66 0.66 1.32 1 2 C0.17675733 4.09253318 -0.7365789 6.14981193 -1.6875 8.1875 C-5.04369241 15.60325497 -7.11640558 23.08890344 -9 31 C-9.33 31 -9.66 31 -10 31 C-10.02712066 29.56260487 -10.04645067 28.12506137 -10.0625 26.6875 C-10.07410156 25.88699219 -10.08570313 25.08648437 -10.09765625 24.26171875 C-10 22 -10 22 -9 19 C-10.98 19.33 -12.96 19.66 -15 20 C-12.46811848 17.08833625 -12.46811848 17.08833625 -10.02441406 16.62719727 C-7.89709257 16.18482183 -7.89709257 16.18482183 -6.81152344 14.41772461 C-6.49731445 13.75264893 -6.18310547 13.08757324 -5.859375 12.40234375 C-5.51132813 11.68369141 -5.16328125 10.96503906 -4.8046875 10.22460938 C-4.45664063 9.46986328 -4.10859375 8.71511719 -3.75 7.9375 C-3.38648438 7.17888672 -3.02296875 6.42027344 -2.6484375 5.63867188 C-1.75291206 3.76513839 -0.87477399 1.88331197 0 0 Z " fill="#C7F0F7" transform="translate(251,304)"/>
<path d="M0 0 C-0.40137545 5.61925626 -2.17974459 8.08656763 -6 12 C-6.66 12 -7.32 12 -8 12 C-8.48695652 4.69565217 -8.48695652 4.69565217 -6.25 1.5 C-4 0 -4 0 0 0 Z " fill="#14C2E0" transform="translate(242,323)"/>
<path d="M0 0 C0.66 0.33 1.32 0.66 2 1 C1.01 3.31 0.02 5.62 -1 8 C-0.01 8.33 0.98 8.66 2 9 C0.35 9 -1.3 9 -3 9 C-3.66 12.96 -4.32 16.92 -5 21 C-4.01 21.33 -3.02 21.66 -2 22 C-3.9375 22.5625 -3.9375 22.5625 -6 23 C-7 22 -7 22 -7.125 18.3125 C-7.07428153 14.78756662 -6.83886284 11.43933763 -6 8 C-5.34 7.67 -4.68 7.34 -4 7 C-2.88365848 5.34948712 -2.88365848 5.34948712 -1.875 3.4375 C-1.25625 2.303125 -0.6375 1.16875 0 0 Z " fill="#E3F7FB" transform="translate(318,314)"/>
<path d="M0 0 C1.60725635 3.21451269 1.05748185 6.43612536 1 10 C6.94 10.99 6.94 10.99 13 12 C12.67 12.66 12.34 13.32 12 14 C3.07325383 14.6132879 3.07325383 14.6132879 -0.625 12.5 C-2.67402032 8.77450851 -2.40914133 6.2277937 -2 2 C-1.34 1.34 -0.68 0.68 0 0 Z " fill="#DAF5FA" transform="translate(252,323)"/>
<path d="M0 0 C2.625 0.375 2.625 0.375 5 1 C4.67 1.99 4.34 2.98 4 4 C4 3.34 4 2.68 4 2 C2.68 2 1.36 2 0 2 C0.495 3.051875 0.99 4.10375 1.5 5.1875 C2.81035243 8.25533935 3.4821556 10.62491077 3 14 C1 16 1 16 -2.125 16.125 C-3.548125 16.063125 -3.548125 16.063125 -5 16 C-5.33 14.68 -5.66 13.36 -6 12 C-5.34 12.66 -4.68 13.32 -4 14 C-2.68 14 -1.36 14 0 14 C-0.27540704 10.18186553 -0.27540704 10.18186553 -2 7 C-2.1875 4.5625 -2.1875 4.5625 -2 2 C-1.34 1.34 -0.68 0.68 0 0 Z " fill="#E1F7FB" transform="translate(303,321)"/>
<path d="M0 0 C0.33 0.66 0.66 1.32 1 2 C0.00522247 4.33556463 -0.99515117 6.66875071 -2 9 C-2 10.32 -2 11.64 -2 13 C-1.01 13 -0.02 13 1 13 C-0.25 14.5625 -0.25 14.5625 -2 16 C-4.1875 15.6875 -4.1875 15.6875 -6 15 C-5.45347315 10.44560959 -4.77760174 6.24649304 -3 2 C-2.01 1.34 -1.02 0.68 0 0 Z " fill="#C2EFF7" transform="translate(228,321)"/>
<path d="M0 0 C1.10546875 1.74609375 1.10546875 1.74609375 2 4 C1.42578125 6.03515625 1.42578125 6.03515625 0.3125 8.0625 C-0.04199219 8.73410156 -0.39648438 9.40570313 -0.76171875 10.09765625 C-2.03891917 12.05979065 -3.16794683 13.53796742 -5 15 C-8.6875 15.1875 -8.6875 15.1875 -12 15 C-12 14.67 -12 14.34 -12 14 C-10.9275 13.855625 -9.855 13.71125 -8.75 13.5625 C-6.08304637 12.82827795 -5.20863513 12.32097713 -3.6796875 9.96875 C-2.67181064 7.66929762 -1.78994135 5.38256505 -1 3 C-0.67 2.01 -0.34 1.02 0 0 Z " fill="#BBEDF6" transform="translate(200,315)"/>
<path d="M0 0 C3.875 1.875 3.875 1.875 5 3 C5.04092937 5.33297433 5.04241723 7.66705225 5 10 C4.01 10.33 3.02 10.66 2 11 C1.855625 9.9275 1.71125 8.855 1.5625 7.75 C1.16250558 5.08337051 0.72408076 2.58600271 0 0 Z " fill="#E8F9FC" transform="translate(216,300)"/>
<path d="M0 0 C0.680625 0.28875 1.36125 0.5775 2.0625 0.875 C2.0625 1.865 2.0625 2.855 2.0625 3.875 C1.051875 3.75125 0.04125 3.6275 -1 3.5 C-6.20344839 3.99556651 -8.38494474 6.24685846 -11.9375 9.875 C-9.73112154 4.88619352 -5.81117571 -0.24728407 0 0 Z " fill="#B9E7EE" transform="translate(265.9375,291.125)"/>
<path d="M0 0 C1 2 1 2 0.07421875 5.00390625 C-0.38339844 6.17824219 -0.84101563 7.35257812 -1.3125 8.5625 C-1.76238281 9.73941406 -2.21226562 10.91632813 -2.67578125 12.12890625 C-4 15 -4 15 -6 16 C-5.64455443 9.36501601 -3.86904957 5.36812782 0 0 Z " fill="#DEF6FA" transform="translate(207,301)"/>
<path d="M0 0 C3 2 3 2 4 5 C4.66 4.67 5.32 4.34 6 4 C5.67 4.99 5.34 5.98 5 7 C2.9375 7.6875 2.9375 7.6875 1 8 C0.34 7.01 -0.32 6.02 -1 5 C-1.99 5.66 -2.98 6.32 -4 7 C-2.79618552 4.50638429 -1.54571278 2.31856917 0 0 Z " fill="#B9EDF5" transform="translate(240,329)"/>
<path d="M0 0 C2.625 0.375 2.625 0.375 5 1 C4.67 1.99 4.34 2.98 4 4 C4 3.34 4 2.68 4 2 C2.68 2 1.36 2 0 2 C0.33 3.65 0.66 5.3 1 7 C0.01 7 -0.98 7 -2 7 C-2.125 4.625 -2.125 4.625 -2 2 C-1.34 1.34 -0.68 0.68 0 0 Z " fill="#C6F0F7" transform="translate(303,321)"/>
<path d="M0 0 C0.66 0.33 1.32 0.66 2 1 C1.01 3.31 0.02 5.62 -1 8 C-0.01 8.33 0.98 8.66 2 9 C0.35 9 -1.3 9 -3 9 C-3.33 8.34 -3.66 7.68 -4 7 C-3.22265625 5.2734375 -3.22265625 5.2734375 -2.0625 3.375 C-1.381875 2.26125 -0.70125 1.1475 0 0 Z " fill="#C8F0F7" transform="translate(318,314)"/>
</svg>
